<svg width="127" height="25" viewBox="0 0 127 25" fill="none" xmlns="http://www.w3.org/2000/svg">
<path d="M52.5227 4.45455V19H50.7614V4.45455H52.5227ZM57.5032 12.4375V19H55.8271V8.09091H57.4464V9.79545H57.5884C57.8441 9.24148 58.2324 8.7964 58.7532 8.46023C59.274 8.11932 59.9464 7.94886 60.7702 7.94886C61.5089 7.94886 62.1552 8.10038 62.7092 8.40341C63.2631 8.7017 63.694 9.15625 64.0018 9.76705C64.3095 10.3731 64.4634 11.1402 64.4634 12.0682V19H62.7873V12.1818C62.7873 11.3248 62.5647 10.6572 62.1197 10.179C61.6746 9.69602 61.0638 9.45455 60.2873 9.45455C59.7522 9.45455 59.274 9.57055 58.8526 9.80256C58.436 10.0346 58.1069 10.3731 57.8654 10.8182C57.6239 11.2633 57.5032 11.803 57.5032 12.4375ZM76.0561 8.09091L72.022 19H70.3175L66.2834 8.09091H68.1016L71.1129 16.7841H71.2266L74.2379 8.09091H76.0561ZM82.3097 19.2273C81.3248 19.2273 80.4607 18.9929 79.7173 18.5241C78.9787 18.0554 78.401 17.3996 77.9844 16.5568C77.5724 15.714 77.3665 14.7292 77.3665 13.6023C77.3665 12.4659 77.5724 11.474 77.9844 10.6264C78.401 9.77888 78.9787 9.12074 79.7173 8.65199C80.4607 8.18324 81.3248 7.94886 82.3097 7.94886C83.2945 7.94886 84.1563 8.18324 84.8949 8.65199C85.6383 9.12074 86.2159 9.77888 86.6278 10.6264C87.0445 11.474 87.2528 12.4659 87.2528 13.6023C87.2528 14.7292 87.0445 15.714 86.6278 16.5568C86.2159 17.3996 85.6383 18.0554 84.8949 18.5241C84.1563 18.9929 83.2945 19.2273 82.3097 19.2273ZM82.3097 17.7216C83.0578 17.7216 83.6733 17.5298 84.1562 17.1463C84.6392 16.7628 84.9967 16.2585 85.2287 15.6335C85.4607 15.0085 85.5767 14.3314 85.5767 13.6023C85.5767 12.8731 85.4607 12.1937 85.2287 11.5639C84.9967 10.9342 84.6392 10.4252 84.1562 10.0369C83.6733 9.64867 83.0578 9.45455 82.3097 9.45455C81.5616 9.45455 80.946 9.64867 80.4631 10.0369C79.9801 10.4252 79.6226 10.9342 79.3906 11.5639C79.1586 12.1937 79.0426 12.8731 79.0426 13.6023C79.0426 14.3314 79.1586 15.0085 79.3906 15.6335C79.6226 16.2585 79.9801 16.7628 80.4631 17.1463C80.946 17.5298 81.5616 17.7216 82.3097 17.7216ZM89.8114 19V8.09091H91.4876V19H89.8114ZM90.6637 6.27273C90.337 6.27273 90.0553 6.16146 89.8185 5.93892C89.5865 5.71638 89.4705 5.44886 89.4705 5.13636C89.4705 4.82386 89.5865 4.55634 89.8185 4.33381C90.0553 4.11127 90.337 4 90.6637 4C90.9904 4 91.2698 4.11127 91.5018 4.33381C91.7385 4.55634 91.8569 4.82386 91.8569 5.13636C91.8569 5.44886 91.7385 5.71638 91.5018 5.93892C91.2698 6.16146 90.9904 6.27273 90.6637 6.27273ZM98.9893 19.2273C97.9666 19.2273 97.0859 18.9858 96.3473 18.5028C95.6087 18.0199 95.0405 17.3546 94.6428 16.5071C94.245 15.6596 94.0462 14.6913 94.0462 13.6023C94.0462 12.4943 94.2498 11.5166 94.657 10.669C95.0689 9.81676 95.6418 9.15152 96.3757 8.6733C97.1143 8.19034 97.9761 7.94886 98.9609 7.94886C99.728 7.94886 100.419 8.09091 101.035 8.375C101.65 8.65909 102.155 9.05682 102.548 9.56818C102.941 10.0795 103.184 10.6761 103.279 11.358H101.603C101.475 10.8608 101.191 10.4205 100.751 10.0369C100.315 9.64867 99.728 9.45455 98.9893 9.45455C98.3359 9.45455 97.763 9.625 97.2706 9.96591C96.7829 10.3021 96.4018 10.7779 96.1271 11.3935C95.8572 12.0043 95.7223 12.7216 95.7223 13.5455C95.7223 14.3883 95.8549 15.1222 96.12 15.7472C96.3899 16.3722 96.7687 16.8575 97.2564 17.2031C97.7488 17.5488 98.3265 17.7216 98.9893 17.7216C99.425 17.7216 99.8203 17.6458 100.175 17.4943C100.531 17.3428 100.831 17.125 101.077 16.8409C101.324 16.5568 101.499 16.2159 101.603 15.8182H103.279C103.184 16.4621 102.95 17.0421 102.576 17.5582C102.207 18.0696 101.717 18.4768 101.106 18.7798C100.5 19.0781 99.7943 19.2273 98.9893 19.2273ZM110.303 19.2273C109.252 19.2273 108.345 18.9953 107.583 18.5312C106.826 18.0625 106.241 17.4091 105.829 16.571C105.422 15.7282 105.218 14.7481 105.218 13.6307C105.218 12.5133 105.422 11.5284 105.829 10.6761C106.241 9.81913 106.814 9.15152 107.548 8.6733C108.286 8.19034 109.148 7.94886 110.133 7.94886C110.701 7.94886 111.262 8.04356 111.816 8.23295C112.37 8.42235 112.874 8.73011 113.329 9.15625C113.783 9.57765 114.146 10.1364 114.415 10.8324C114.685 11.5284 114.82 12.3854 114.82 13.4034V14.1136H106.411V12.6648H113.116C113.116 12.0492 112.993 11.5 112.746 11.017C112.505 10.5341 112.159 10.1529 111.71 9.87358C111.264 9.59422 110.739 9.45455 110.133 9.45455C109.465 9.45455 108.888 9.62026 108.4 9.9517C107.917 10.2784 107.545 10.7045 107.285 11.2301C107.024 11.7557 106.894 12.3191 106.894 12.9205V13.8864C106.894 14.7102 107.036 15.4086 107.32 15.9815C107.609 16.5497 108.009 16.983 108.521 17.2812C109.032 17.5748 109.626 17.7216 110.303 17.7216C110.744 17.7216 111.141 17.66 111.496 17.5369C111.856 17.4091 112.166 17.2197 112.427 16.9688C112.687 16.7131 112.888 16.3958 113.031 16.017L114.65 16.4716C114.479 17.0208 114.193 17.5038 113.79 17.9205C113.388 18.3324 112.891 18.6544 112.299 18.8864C111.707 19.1136 111.042 19.2273 110.303 19.2273ZM125.097 10.5341L123.592 10.9602C123.497 10.7093 123.357 10.4654 123.173 10.2287C122.993 9.98722 122.746 9.78835 122.434 9.6321C122.121 9.47585 121.721 9.39773 121.234 9.39773C120.566 9.39773 120.01 9.55161 119.565 9.85938C119.124 10.1624 118.904 10.5483 118.904 11.017C118.904 11.4337 119.056 11.7628 119.359 12.0043C119.662 12.2457 120.135 12.447 120.779 12.608L122.398 13.0057C123.374 13.2424 124.101 13.6046 124.579 14.0923C125.057 14.5753 125.296 15.1979 125.296 15.9602C125.296 16.5852 125.116 17.1439 124.756 17.6364C124.401 18.1288 123.904 18.517 123.265 18.8011C122.626 19.0852 121.882 19.2273 121.035 19.2273C119.922 19.2273 119.001 18.9858 118.272 18.5028C117.543 18.0199 117.081 17.3144 116.887 16.3864L118.478 15.9886C118.629 16.5758 118.916 17.0161 119.337 17.3097C119.763 17.6032 120.32 17.75 121.006 17.75C121.788 17.75 122.408 17.5843 122.867 17.2528C123.331 16.9167 123.563 16.5142 123.563 16.0455C123.563 15.6667 123.431 15.3494 123.165 15.0938C122.9 14.8333 122.493 14.6392 121.944 14.5114L120.126 14.0852C119.127 13.8485 118.393 13.4815 117.924 12.9844C117.46 12.4825 117.228 11.8551 117.228 11.1023C117.228 10.4867 117.401 9.94223 117.746 9.46875C118.097 8.99527 118.573 8.62358 119.174 8.35369C119.78 8.08381 120.467 7.94886 121.234 7.94886C122.313 7.94886 123.161 8.18561 123.776 8.65909C124.397 9.13258 124.837 9.75758 125.097 10.5341Z" fill="black"/>
<path d="M3.88232 14H17.4706" stroke="#9698D6"/>
<path d="M3.88232 19.8235H17.4706" stroke="#9698D6"/>
<path d="M3.88232 10.1177H7.76468" stroke="#9698D6"/>
<rect x="0.5" y="3.5" width="21" height="21" rx="2.5" stroke="#9698D6"/>
</svg>
